<mxfile host="app.diagrams.net" modified="2020-10-13T06:18:02.545Z" agent="5.0 (Windows NT 10.0; Win64; x64) AppleWebKit/537.36 (KHTML, like Gecko) Chrome/85.0.4183.121 Safari/537.36" etag="wBoL6q6t587RfSEawZhY" version="13.7.9" type="github">
  <diagram id="rJ96JC8miD-RQ1pOF9k7" name="数据流图">
    <mxGraphModel dx="899" dy="510" grid="1" gridSize="10" guides="1" tooltips="1" connect="1" arrows="1" fold="1" page="1" pageScale="1" pageWidth="1600" pageHeight="1200" math="0" shadow="0">
      <root>
        <mxCell id="0" />
        <mxCell id="1" parent="0" />
        <mxCell id="pyx75Iiq1UjA_rX2tk7V-17" style="edgeStyle=orthogonalEdgeStyle;rounded=0;orthogonalLoop=1;jettySize=auto;html=1;entryX=0.5;entryY=1;entryDx=0;entryDy=0;" parent="1" source="pyx75Iiq1UjA_rX2tk7V-49" target="pyx75Iiq1UjA_rX2tk7V-8" edge="1">
          <mxGeometry relative="1" as="geometry" />
        </mxCell>
        <mxCell id="pyx75Iiq1UjA_rX2tk7V-18" style="edgeStyle=orthogonalEdgeStyle;rounded=0;orthogonalLoop=1;jettySize=auto;html=1;" parent="1" source="pyx75Iiq1UjA_rX2tk7V-61" target="pyx75Iiq1UjA_rX2tk7V-9" edge="1">
          <mxGeometry relative="1" as="geometry" />
        </mxCell>
        <mxCell id="pyx75Iiq1UjA_rX2tk7V-19" style="edgeStyle=orthogonalEdgeStyle;rounded=0;orthogonalLoop=1;jettySize=auto;html=1;" parent="1" source="pyx75Iiq1UjA_rX2tk7V-57" target="pyx75Iiq1UjA_rX2tk7V-7" edge="1">
          <mxGeometry relative="1" as="geometry" />
        </mxCell>
        <mxCell id="pyx75Iiq1UjA_rX2tk7V-20" style="edgeStyle=orthogonalEdgeStyle;rounded=0;orthogonalLoop=1;jettySize=auto;html=1;" parent="1" source="pyx75Iiq1UjA_rX2tk7V-59" target="pyx75Iiq1UjA_rX2tk7V-10" edge="1">
          <mxGeometry relative="1" as="geometry" />
        </mxCell>
        <mxCell id="pyx75Iiq1UjA_rX2tk7V-21" style="edgeStyle=orthogonalEdgeStyle;rounded=0;orthogonalLoop=1;jettySize=auto;html=1;entryX=0.5;entryY=1;entryDx=0;entryDy=0;" parent="1" source="pyx75Iiq1UjA_rX2tk7V-63" target="pyx75Iiq1UjA_rX2tk7V-11" edge="1">
          <mxGeometry relative="1" as="geometry" />
        </mxCell>
        <mxCell id="pyx75Iiq1UjA_rX2tk7V-3" value="学生和导师" style="rounded=0;whiteSpace=wrap;html=1;" parent="1" vertex="1">
          <mxGeometry x="570" y="845" width="120" height="60" as="geometry" />
        </mxCell>
        <mxCell id="pyx75Iiq1UjA_rX2tk7V-72" style="edgeStyle=orthogonalEdgeStyle;rounded=0;orthogonalLoop=1;jettySize=auto;html=1;exitX=0;exitY=0.5;exitDx=0;exitDy=0;entryX=0;entryY=0.75;entryDx=0;entryDy=0;" parent="1" source="pyx75Iiq1UjA_rX2tk7V-7" target="pyx75Iiq1UjA_rX2tk7V-3" edge="1">
          <mxGeometry relative="1" as="geometry">
            <mxPoint x="235" y="890" as="targetPoint" />
          </mxGeometry>
        </mxCell>
        <mxCell id="pyx75Iiq1UjA_rX2tk7V-73" value="响应博客数据" style="edgeLabel;html=1;align=center;verticalAlign=middle;resizable=0;points=[];" parent="pyx75Iiq1UjA_rX2tk7V-72" vertex="1" connectable="0">
          <mxGeometry x="-0.7386" y="-2" relative="1" as="geometry">
            <mxPoint as="offset" />
          </mxGeometry>
        </mxCell>
        <mxCell id="pyx75Iiq1UjA_rX2tk7V-7" value="&lt;span&gt;查看博客&lt;/span&gt;" style="rounded=1;whiteSpace=wrap;html=1;" parent="1" vertex="1">
          <mxGeometry x="210" y="680" width="100" height="40" as="geometry" />
        </mxCell>
        <mxCell id="pyx75Iiq1UjA_rX2tk7V-33" style="edgeStyle=orthogonalEdgeStyle;rounded=0;orthogonalLoop=1;jettySize=auto;html=1;entryX=1;entryY=0.5;entryDx=0;entryDy=0;" parent="1" source="pyx75Iiq1UjA_rX2tk7V-34" target="pyx75Iiq1UjA_rX2tk7V-25" edge="1">
          <mxGeometry relative="1" as="geometry" />
        </mxCell>
        <mxCell id="pyx75Iiq1UjA_rX2tk7V-8" value="&#xa;&#xa;&lt;span style=&quot;color: rgb(0, 0, 0); font-family: helvetica; font-size: 12px; font-style: normal; font-weight: 400; letter-spacing: normal; text-align: center; text-indent: 0px; text-transform: none; word-spacing: 0px; background-color: rgb(248, 249, 250); display: inline; float: none;&quot;&gt;发表博客&lt;/span&gt;&#xa;&#xa;" style="rounded=1;whiteSpace=wrap;html=1;" parent="1" vertex="1">
          <mxGeometry x="390" y="680" width="100" height="40" as="geometry" />
        </mxCell>
        <mxCell id="pyx75Iiq1UjA_rX2tk7V-54" style="edgeStyle=orthogonalEdgeStyle;rounded=0;orthogonalLoop=1;jettySize=auto;html=1;entryX=0.5;entryY=1;entryDx=0;entryDy=0;" parent="1" source="pyx75Iiq1UjA_rX2tk7V-55" target="pyx75Iiq1UjA_rX2tk7V-28" edge="1">
          <mxGeometry relative="1" as="geometry" />
        </mxCell>
        <mxCell id="pyx75Iiq1UjA_rX2tk7V-9" value="&#xa;&#xa;&lt;span style=&quot;color: rgb(0, 0, 0); font-family: helvetica; font-size: 12px; font-style: normal; font-weight: 400; letter-spacing: normal; text-align: center; text-indent: 0px; text-transform: none; word-spacing: 0px; background-color: rgb(248, 249, 250); display: inline; float: none;&quot;&gt;用户注册&lt;/span&gt;&#xa;&#xa;" style="rounded=1;whiteSpace=wrap;html=1;" parent="1" vertex="1">
          <mxGeometry x="940" y="680" width="100" height="40" as="geometry" />
        </mxCell>
        <mxCell id="pyx75Iiq1UjA_rX2tk7V-68" style="edgeStyle=orthogonalEdgeStyle;rounded=0;orthogonalLoop=1;jettySize=auto;html=1;entryX=0.25;entryY=0;entryDx=0;entryDy=0;" parent="1" source="pyx75Iiq1UjA_rX2tk7V-69" target="pyx75Iiq1UjA_rX2tk7V-3" edge="1">
          <mxGeometry relative="1" as="geometry">
            <mxPoint x="600" y="720" as="sourcePoint" />
          </mxGeometry>
        </mxCell>
        <mxCell id="pyx75Iiq1UjA_rX2tk7V-10" value="查看书籍" style="rounded=1;whiteSpace=wrap;html=1;" parent="1" vertex="1">
          <mxGeometry x="580" y="680" width="100" height="40" as="geometry" />
        </mxCell>
        <mxCell id="pyx75Iiq1UjA_rX2tk7V-51" style="edgeStyle=orthogonalEdgeStyle;rounded=0;orthogonalLoop=1;jettySize=auto;html=1;entryX=1;entryY=0.5;entryDx=0;entryDy=0;" parent="1" source="pyx75Iiq1UjA_rX2tk7V-52" target="pyx75Iiq1UjA_rX2tk7V-27" edge="1">
          <mxGeometry relative="1" as="geometry" />
        </mxCell>
        <mxCell id="pyx75Iiq1UjA_rX2tk7V-11" value="添加书籍" style="rounded=1;whiteSpace=wrap;html=1;" parent="1" vertex="1">
          <mxGeometry x="760" y="680" width="100" height="40" as="geometry" />
        </mxCell>
        <mxCell id="pyx75Iiq1UjA_rX2tk7V-43" style="edgeStyle=orthogonalEdgeStyle;rounded=0;orthogonalLoop=1;jettySize=auto;html=1;" parent="1" source="pyx75Iiq1UjA_rX2tk7V-44" target="pyx75Iiq1UjA_rX2tk7V-28" edge="1">
          <mxGeometry relative="1" as="geometry" />
        </mxCell>
        <mxCell id="pyx75Iiq1UjA_rX2tk7V-12" value="用户信息管理" style="rounded=1;whiteSpace=wrap;html=1;" parent="1" vertex="1">
          <mxGeometry x="940" y="370" width="100" height="40" as="geometry" />
        </mxCell>
        <mxCell id="pyx75Iiq1UjA_rX2tk7V-40" style="edgeStyle=orthogonalEdgeStyle;rounded=0;orthogonalLoop=1;jettySize=auto;html=1;" parent="1" source="pyx75Iiq1UjA_rX2tk7V-41" target="pyx75Iiq1UjA_rX2tk7V-27" edge="1">
          <mxGeometry relative="1" as="geometry" />
        </mxCell>
        <mxCell id="pyx75Iiq1UjA_rX2tk7V-13" value="书籍信息管理" style="rounded=1;whiteSpace=wrap;html=1;" parent="1" vertex="1">
          <mxGeometry x="580" y="370" width="100" height="40" as="geometry" />
        </mxCell>
        <mxCell id="pyx75Iiq1UjA_rX2tk7V-35" style="edgeStyle=orthogonalEdgeStyle;rounded=0;orthogonalLoop=1;jettySize=auto;html=1;exitX=0.5;exitY=1;exitDx=0;exitDy=0;" parent="1" source="pyx75Iiq1UjA_rX2tk7V-36" target="pyx75Iiq1UjA_rX2tk7V-25" edge="1">
          <mxGeometry relative="1" as="geometry" />
        </mxCell>
        <mxCell id="pyx75Iiq1UjA_rX2tk7V-14" value="博客信息管理" style="rounded=1;whiteSpace=wrap;html=1;" parent="1" vertex="1">
          <mxGeometry x="310" y="370" width="100" height="40" as="geometry" />
        </mxCell>
        <mxCell id="pyx75Iiq1UjA_rX2tk7V-22" style="edgeStyle=orthogonalEdgeStyle;rounded=0;orthogonalLoop=1;jettySize=auto;html=1;" parent="1" source="pyx75Iiq1UjA_rX2tk7V-16" target="pyx75Iiq1UjA_rX2tk7V-13" edge="1">
          <mxGeometry relative="1" as="geometry" />
        </mxCell>
        <mxCell id="pyx75Iiq1UjA_rX2tk7V-23" style="edgeStyle=orthogonalEdgeStyle;rounded=0;orthogonalLoop=1;jettySize=auto;html=1;" parent="1" source="pyx75Iiq1UjA_rX2tk7V-16" target="pyx75Iiq1UjA_rX2tk7V-14" edge="1">
          <mxGeometry relative="1" as="geometry" />
        </mxCell>
        <mxCell id="pyx75Iiq1UjA_rX2tk7V-24" style="edgeStyle=orthogonalEdgeStyle;rounded=0;orthogonalLoop=1;jettySize=auto;html=1;" parent="1" source="pyx75Iiq1UjA_rX2tk7V-16" target="pyx75Iiq1UjA_rX2tk7V-12" edge="1">
          <mxGeometry relative="1" as="geometry" />
        </mxCell>
        <mxCell id="pyx75Iiq1UjA_rX2tk7V-88" style="edgeStyle=orthogonalEdgeStyle;rounded=0;orthogonalLoop=1;jettySize=auto;html=1;exitX=1;exitY=0.25;exitDx=0;exitDy=0;" parent="1" source="pyx75Iiq1UjA_rX2tk7V-16" target="pyx75Iiq1UjA_rX2tk7V-82" edge="1">
          <mxGeometry relative="1" as="geometry" />
        </mxCell>
        <mxCell id="pyx75Iiq1UjA_rX2tk7V-16" value="管理员" style="rounded=0;whiteSpace=wrap;html=1;" parent="1" vertex="1">
          <mxGeometry x="570" y="230" width="120" height="60" as="geometry" />
        </mxCell>
        <mxCell id="pyx75Iiq1UjA_rX2tk7V-32" style="edgeStyle=orthogonalEdgeStyle;rounded=0;orthogonalLoop=1;jettySize=auto;html=1;" parent="1" source="pyx75Iiq1UjA_rX2tk7V-31" target="pyx75Iiq1UjA_rX2tk7V-7" edge="1">
          <mxGeometry relative="1" as="geometry" />
        </mxCell>
        <mxCell id="pyx75Iiq1UjA_rX2tk7V-25" value="博客数据" style="shape=partialRectangle;whiteSpace=wrap;html=1;left=0;right=0;fillColor=none;" parent="1" vertex="1">
          <mxGeometry x="249" y="520" width="100" height="30" as="geometry" />
        </mxCell>
        <mxCell id="pyx75Iiq1UjA_rX2tk7V-46" style="edgeStyle=orthogonalEdgeStyle;rounded=0;orthogonalLoop=1;jettySize=auto;html=1;entryX=0.5;entryY=0;entryDx=0;entryDy=0;" parent="1" source="pyx75Iiq1UjA_rX2tk7V-47" target="pyx75Iiq1UjA_rX2tk7V-10" edge="1">
          <mxGeometry relative="1" as="geometry" />
        </mxCell>
        <mxCell id="pyx75Iiq1UjA_rX2tk7V-27" value="书籍数据" style="shape=partialRectangle;whiteSpace=wrap;html=1;left=0;right=0;fillColor=none;" parent="1" vertex="1">
          <mxGeometry x="580" y="520" width="100" height="30" as="geometry" />
        </mxCell>
        <mxCell id="pyx75Iiq1UjA_rX2tk7V-28" value="用户数据" style="shape=partialRectangle;whiteSpace=wrap;html=1;left=0;right=0;fillColor=none;" parent="1" vertex="1">
          <mxGeometry x="940" y="520" width="100" height="30" as="geometry" />
        </mxCell>
        <mxCell id="pyx75Iiq1UjA_rX2tk7V-36" value="博客信息记录" style="text;html=1;align=center;verticalAlign=middle;resizable=0;points=[];autosize=1;" parent="1" vertex="1">
          <mxGeometry x="315" y="450" width="90" height="20" as="geometry" />
        </mxCell>
        <mxCell id="pyx75Iiq1UjA_rX2tk7V-37" style="edgeStyle=orthogonalEdgeStyle;rounded=0;orthogonalLoop=1;jettySize=auto;html=1;exitX=0.5;exitY=1;exitDx=0;exitDy=0;" parent="1" source="pyx75Iiq1UjA_rX2tk7V-14" target="pyx75Iiq1UjA_rX2tk7V-36" edge="1">
          <mxGeometry relative="1" as="geometry">
            <mxPoint x="360" y="410" as="sourcePoint" />
            <mxPoint x="299" y="520" as="targetPoint" />
          </mxGeometry>
        </mxCell>
        <mxCell id="pyx75Iiq1UjA_rX2tk7V-34" value="博客信息记录" style="text;html=1;align=center;verticalAlign=middle;resizable=0;points=[];autosize=1;" parent="1" vertex="1">
          <mxGeometry x="380" y="525" width="90" height="20" as="geometry" />
        </mxCell>
        <mxCell id="pyx75Iiq1UjA_rX2tk7V-38" style="edgeStyle=orthogonalEdgeStyle;rounded=0;orthogonalLoop=1;jettySize=auto;html=1;entryX=1;entryY=0.5;entryDx=0;entryDy=0;" parent="1" source="pyx75Iiq1UjA_rX2tk7V-8" target="pyx75Iiq1UjA_rX2tk7V-34" edge="1">
          <mxGeometry relative="1" as="geometry">
            <mxPoint x="390" y="700" as="sourcePoint" />
            <mxPoint x="349" y="535" as="targetPoint" />
          </mxGeometry>
        </mxCell>
        <mxCell id="pyx75Iiq1UjA_rX2tk7V-31" value="博客信息记录" style="text;html=1;align=center;verticalAlign=middle;resizable=0;points=[];autosize=1;" parent="1" vertex="1">
          <mxGeometry x="254" y="610" width="90" height="20" as="geometry" />
        </mxCell>
        <mxCell id="pyx75Iiq1UjA_rX2tk7V-39" style="edgeStyle=orthogonalEdgeStyle;rounded=0;orthogonalLoop=1;jettySize=auto;html=1;" parent="1" source="pyx75Iiq1UjA_rX2tk7V-25" target="pyx75Iiq1UjA_rX2tk7V-31" edge="1">
          <mxGeometry relative="1" as="geometry">
            <mxPoint x="299" y="550" as="sourcePoint" />
            <mxPoint x="260" y="680" as="targetPoint" />
          </mxGeometry>
        </mxCell>
        <mxCell id="pyx75Iiq1UjA_rX2tk7V-41" value="书籍信息记录" style="text;html=1;align=center;verticalAlign=middle;resizable=0;points=[];autosize=1;" parent="1" vertex="1">
          <mxGeometry x="585" y="440" width="90" height="20" as="geometry" />
        </mxCell>
        <mxCell id="pyx75Iiq1UjA_rX2tk7V-42" style="edgeStyle=orthogonalEdgeStyle;rounded=0;orthogonalLoop=1;jettySize=auto;html=1;" parent="1" source="pyx75Iiq1UjA_rX2tk7V-13" target="pyx75Iiq1UjA_rX2tk7V-41" edge="1">
          <mxGeometry relative="1" as="geometry">
            <mxPoint x="630" y="410" as="sourcePoint" />
            <mxPoint x="630" y="520" as="targetPoint" />
          </mxGeometry>
        </mxCell>
        <mxCell id="pyx75Iiq1UjA_rX2tk7V-44" value="用户信息记录" style="text;html=1;align=center;verticalAlign=middle;resizable=0;points=[];autosize=1;" parent="1" vertex="1">
          <mxGeometry x="945" y="450" width="90" height="20" as="geometry" />
        </mxCell>
        <mxCell id="pyx75Iiq1UjA_rX2tk7V-45" style="edgeStyle=orthogonalEdgeStyle;rounded=0;orthogonalLoop=1;jettySize=auto;html=1;" parent="1" source="pyx75Iiq1UjA_rX2tk7V-12" target="pyx75Iiq1UjA_rX2tk7V-44" edge="1">
          <mxGeometry relative="1" as="geometry">
            <mxPoint x="990" y="410" as="sourcePoint" />
            <mxPoint x="990" y="520" as="targetPoint" />
          </mxGeometry>
        </mxCell>
        <mxCell id="pyx75Iiq1UjA_rX2tk7V-47" value="&lt;span&gt;书籍信息&lt;/span&gt;" style="text;html=1;align=center;verticalAlign=middle;resizable=0;points=[];autosize=1;" parent="1" vertex="1">
          <mxGeometry x="600" y="600" width="60" height="20" as="geometry" />
        </mxCell>
        <mxCell id="pyx75Iiq1UjA_rX2tk7V-48" style="edgeStyle=orthogonalEdgeStyle;rounded=0;orthogonalLoop=1;jettySize=auto;html=1;entryX=0.5;entryY=0;entryDx=0;entryDy=0;" parent="1" source="pyx75Iiq1UjA_rX2tk7V-27" target="pyx75Iiq1UjA_rX2tk7V-47" edge="1">
          <mxGeometry relative="1" as="geometry">
            <mxPoint x="630" y="550" as="sourcePoint" />
            <mxPoint x="630" y="680" as="targetPoint" />
          </mxGeometry>
        </mxCell>
        <mxCell id="pyx75Iiq1UjA_rX2tk7V-49" value="博客信息记录" style="text;html=1;align=center;verticalAlign=middle;resizable=0;points=[];autosize=1;" parent="1" vertex="1">
          <mxGeometry x="395" y="780" width="90" height="20" as="geometry" />
        </mxCell>
        <mxCell id="pyx75Iiq1UjA_rX2tk7V-50" style="edgeStyle=orthogonalEdgeStyle;rounded=0;orthogonalLoop=1;jettySize=auto;html=1;entryX=0.5;entryY=1;entryDx=0;entryDy=0;" parent="1" source="pyx75Iiq1UjA_rX2tk7V-3" target="pyx75Iiq1UjA_rX2tk7V-49" edge="1">
          <mxGeometry relative="1" as="geometry">
            <mxPoint x="570" y="875" as="sourcePoint" />
            <mxPoint x="440" y="720" as="targetPoint" />
          </mxGeometry>
        </mxCell>
        <mxCell id="pyx75Iiq1UjA_rX2tk7V-52" value="书籍信息" style="text;html=1;align=center;verticalAlign=middle;resizable=0;points=[];autosize=1;" parent="1" vertex="1">
          <mxGeometry x="730" y="525" width="60" height="20" as="geometry" />
        </mxCell>
        <mxCell id="pyx75Iiq1UjA_rX2tk7V-53" style="edgeStyle=orthogonalEdgeStyle;rounded=0;orthogonalLoop=1;jettySize=auto;html=1;entryX=1;entryY=0.5;entryDx=0;entryDy=0;" parent="1" source="pyx75Iiq1UjA_rX2tk7V-11" target="pyx75Iiq1UjA_rX2tk7V-52" edge="1">
          <mxGeometry relative="1" as="geometry">
            <mxPoint x="760" y="700" as="sourcePoint" />
            <mxPoint x="680" y="535" as="targetPoint" />
          </mxGeometry>
        </mxCell>
        <mxCell id="pyx75Iiq1UjA_rX2tk7V-55" value="用户信息记录" style="text;html=1;align=center;verticalAlign=middle;resizable=0;points=[];autosize=1;" parent="1" vertex="1">
          <mxGeometry x="945" y="610" width="90" height="20" as="geometry" />
        </mxCell>
        <mxCell id="pyx75Iiq1UjA_rX2tk7V-56" style="edgeStyle=orthogonalEdgeStyle;rounded=0;orthogonalLoop=1;jettySize=auto;html=1;entryX=0.5;entryY=1;entryDx=0;entryDy=0;" parent="1" source="pyx75Iiq1UjA_rX2tk7V-9" target="pyx75Iiq1UjA_rX2tk7V-55" edge="1">
          <mxGeometry relative="1" as="geometry">
            <mxPoint x="990" y="680" as="sourcePoint" />
            <mxPoint x="990" y="550" as="targetPoint" />
          </mxGeometry>
        </mxCell>
        <mxCell id="pyx75Iiq1UjA_rX2tk7V-57" value="请求" style="text;html=1;align=center;verticalAlign=middle;resizable=0;points=[];autosize=1;" parent="1" vertex="1">
          <mxGeometry x="240" y="780" width="40" height="20" as="geometry" />
        </mxCell>
        <mxCell id="pyx75Iiq1UjA_rX2tk7V-58" style="edgeStyle=orthogonalEdgeStyle;rounded=0;orthogonalLoop=1;jettySize=auto;html=1;" parent="1" source="pyx75Iiq1UjA_rX2tk7V-3" target="pyx75Iiq1UjA_rX2tk7V-57" edge="1">
          <mxGeometry relative="1" as="geometry">
            <mxPoint x="570" y="875" as="sourcePoint" />
            <mxPoint x="260" y="720" as="targetPoint" />
          </mxGeometry>
        </mxCell>
        <mxCell id="pyx75Iiq1UjA_rX2tk7V-59" value="请求" style="text;html=1;align=center;verticalAlign=middle;resizable=0;points=[];autosize=1;" parent="1" vertex="1">
          <mxGeometry x="640" y="770" width="40" height="20" as="geometry" />
        </mxCell>
        <mxCell id="pyx75Iiq1UjA_rX2tk7V-60" style="edgeStyle=orthogonalEdgeStyle;rounded=0;orthogonalLoop=1;jettySize=auto;html=1;exitX=0.75;exitY=0;exitDx=0;exitDy=0;" parent="1" source="pyx75Iiq1UjA_rX2tk7V-3" target="pyx75Iiq1UjA_rX2tk7V-59" edge="1">
          <mxGeometry relative="1" as="geometry">
            <mxPoint x="630" y="845" as="sourcePoint" />
            <mxPoint x="630" y="720" as="targetPoint" />
          </mxGeometry>
        </mxCell>
        <mxCell id="pyx75Iiq1UjA_rX2tk7V-61" value="注册信息" style="text;html=1;align=center;verticalAlign=middle;resizable=0;points=[];autosize=1;" parent="1" vertex="1">
          <mxGeometry x="960" y="780" width="60" height="20" as="geometry" />
        </mxCell>
        <mxCell id="pyx75Iiq1UjA_rX2tk7V-62" style="edgeStyle=orthogonalEdgeStyle;rounded=0;orthogonalLoop=1;jettySize=auto;html=1;" parent="1" source="pyx75Iiq1UjA_rX2tk7V-3" target="pyx75Iiq1UjA_rX2tk7V-61" edge="1">
          <mxGeometry relative="1" as="geometry">
            <mxPoint x="690" y="875" as="sourcePoint" />
            <mxPoint x="990" y="720" as="targetPoint" />
          </mxGeometry>
        </mxCell>
        <mxCell id="pyx75Iiq1UjA_rX2tk7V-63" value="&lt;span&gt;书籍信息&lt;/span&gt;" style="text;html=1;align=center;verticalAlign=middle;resizable=0;points=[];autosize=1;" parent="1" vertex="1">
          <mxGeometry x="780" y="780" width="60" height="20" as="geometry" />
        </mxCell>
        <mxCell id="pyx75Iiq1UjA_rX2tk7V-65" style="edgeStyle=orthogonalEdgeStyle;rounded=0;orthogonalLoop=1;jettySize=auto;html=1;entryX=0.5;entryY=1;entryDx=0;entryDy=0;" parent="1" source="pyx75Iiq1UjA_rX2tk7V-3" target="pyx75Iiq1UjA_rX2tk7V-63" edge="1">
          <mxGeometry relative="1" as="geometry">
            <mxPoint x="690" y="875" as="sourcePoint" />
            <mxPoint x="810" y="720" as="targetPoint" />
          </mxGeometry>
        </mxCell>
        <mxCell id="pyx75Iiq1UjA_rX2tk7V-69" value="&lt;span&gt;书籍信息&lt;/span&gt;" style="text;html=1;align=center;verticalAlign=middle;resizable=0;points=[];autosize=1;" parent="1" vertex="1">
          <mxGeometry x="570" y="770" width="60" height="20" as="geometry" />
        </mxCell>
        <mxCell id="pyx75Iiq1UjA_rX2tk7V-70" style="edgeStyle=orthogonalEdgeStyle;rounded=0;orthogonalLoop=1;jettySize=auto;html=1;entryX=0.25;entryY=0;entryDx=0;entryDy=0;" parent="1" target="pyx75Iiq1UjA_rX2tk7V-69" edge="1">
          <mxGeometry relative="1" as="geometry">
            <mxPoint x="600" y="720" as="sourcePoint" />
            <mxPoint x="600" y="845" as="targetPoint" />
          </mxGeometry>
        </mxCell>
        <mxCell id="pyx75Iiq1UjA_rX2tk7V-79" style="edgeStyle=orthogonalEdgeStyle;rounded=0;orthogonalLoop=1;jettySize=auto;html=1;entryX=0;entryY=0.25;entryDx=0;entryDy=0;exitX=1;exitY=0.25;exitDx=0;exitDy=0;" parent="1" source="pyx75Iiq1UjA_rX2tk7V-75" target="pyx75Iiq1UjA_rX2tk7V-77" edge="1">
          <mxGeometry relative="1" as="geometry" />
        </mxCell>
        <mxCell id="pyx75Iiq1UjA_rX2tk7V-85" value="维护信息" style="edgeLabel;html=1;align=center;verticalAlign=middle;resizable=0;points=[];" parent="pyx75Iiq1UjA_rX2tk7V-79" vertex="1" connectable="0">
          <mxGeometry x="-0.2556" y="2" relative="1" as="geometry">
            <mxPoint as="offset" />
          </mxGeometry>
        </mxCell>
        <mxCell id="pyx75Iiq1UjA_rX2tk7V-75" value="导师" style="whiteSpace=wrap;html=1;" parent="1" vertex="1">
          <mxGeometry x="110" y="60" width="120" height="60" as="geometry" />
        </mxCell>
        <mxCell id="pyx75Iiq1UjA_rX2tk7V-80" style="edgeStyle=orthogonalEdgeStyle;rounded=0;orthogonalLoop=1;jettySize=auto;html=1;" parent="1" source="pyx75Iiq1UjA_rX2tk7V-77" target="pyx75Iiq1UjA_rX2tk7V-78" edge="1">
          <mxGeometry relative="1" as="geometry" />
        </mxCell>
        <mxCell id="pyx75Iiq1UjA_rX2tk7V-87" value="圈子信息记录" style="edgeLabel;html=1;align=center;verticalAlign=middle;resizable=0;points=[];" parent="pyx75Iiq1UjA_rX2tk7V-80" vertex="1" connectable="0">
          <mxGeometry x="-0.1163" y="1" relative="1" as="geometry">
            <mxPoint as="offset" />
          </mxGeometry>
        </mxCell>
        <mxCell id="pyx75Iiq1UjA_rX2tk7V-84" style="edgeStyle=orthogonalEdgeStyle;rounded=0;orthogonalLoop=1;jettySize=auto;html=1;entryX=1;entryY=0.75;entryDx=0;entryDy=0;exitX=0;exitY=0.75;exitDx=0;exitDy=0;" parent="1" source="pyx75Iiq1UjA_rX2tk7V-77" target="pyx75Iiq1UjA_rX2tk7V-75" edge="1">
          <mxGeometry relative="1" as="geometry" />
        </mxCell>
        <mxCell id="pyx75Iiq1UjA_rX2tk7V-86" value="圈子信息" style="edgeLabel;html=1;align=center;verticalAlign=middle;resizable=0;points=[];" parent="pyx75Iiq1UjA_rX2tk7V-84" vertex="1" connectable="0">
          <mxGeometry x="0.2889" relative="1" as="geometry">
            <mxPoint as="offset" />
          </mxGeometry>
        </mxCell>
        <mxCell id="pyx75Iiq1UjA_rX2tk7V-77" value="维护圈子信息" style="rounded=1;whiteSpace=wrap;html=1;" parent="1" vertex="1">
          <mxGeometry x="405" y="70" width="100" height="40" as="geometry" />
        </mxCell>
        <mxCell id="pyx75Iiq1UjA_rX2tk7V-92" style="edgeStyle=orthogonalEdgeStyle;rounded=0;orthogonalLoop=1;jettySize=auto;html=1;entryX=1;entryY=0.75;entryDx=0;entryDy=0;exitX=0;exitY=0.75;exitDx=0;exitDy=0;" parent="1" source="pyx75Iiq1UjA_rX2tk7V-78" target="pyx75Iiq1UjA_rX2tk7V-77" edge="1">
          <mxGeometry relative="1" as="geometry" />
        </mxCell>
        <mxCell id="pyx75Iiq1UjA_rX2tk7V-78" value="圈子数据" style="shape=partialRectangle;whiteSpace=wrap;html=1;left=0;right=0;fillColor=none;" parent="1" vertex="1">
          <mxGeometry x="720" y="75" width="100" height="30" as="geometry" />
        </mxCell>
        <mxCell id="pyx75Iiq1UjA_rX2tk7V-89" style="edgeStyle=orthogonalEdgeStyle;rounded=0;orthogonalLoop=1;jettySize=auto;html=1;" parent="1" source="pyx75Iiq1UjA_rX2tk7V-82" target="pyx75Iiq1UjA_rX2tk7V-78" edge="1">
          <mxGeometry relative="1" as="geometry" />
        </mxCell>
        <mxCell id="pyx75Iiq1UjA_rX2tk7V-94" style="edgeStyle=orthogonalEdgeStyle;rounded=0;orthogonalLoop=1;jettySize=auto;html=1;" parent="1" source="pyx75Iiq1UjA_rX2tk7V-82" target="pyx75Iiq1UjA_rX2tk7V-16" edge="1">
          <mxGeometry relative="1" as="geometry" />
        </mxCell>
        <mxCell id="pyx75Iiq1UjA_rX2tk7V-82" value="圈子信息管理" style="rounded=1;whiteSpace=wrap;html=1;" parent="1" vertex="1">
          <mxGeometry x="730" y="160" width="100" height="40" as="geometry" />
        </mxCell>
        <mxCell id="pyx75Iiq1UjA_rX2tk7V-90" value="圈子信息记录" style="edgeLabel;html=1;align=center;verticalAlign=middle;resizable=0;points=[];" parent="1" vertex="1" connectable="0">
          <mxGeometry x="770" y="220" as="geometry" />
        </mxCell>
        <mxCell id="pyx75Iiq1UjA_rX2tk7V-91" value="圈子信息记录" style="edgeLabel;html=1;align=center;verticalAlign=middle;resizable=0;points=[];" parent="1" vertex="1" connectable="0">
          <mxGeometry x="770" y="130" as="geometry" />
        </mxCell>
        <mxCell id="pyx75Iiq1UjA_rX2tk7V-93" value="圈子信息记录" style="edgeLabel;html=1;align=center;verticalAlign=middle;resizable=0;points=[];" parent="1" vertex="1" connectable="0">
          <mxGeometry x="610" y="99" as="geometry" />
        </mxCell>
        <mxCell id="pyx75Iiq1UjA_rX2tk7V-95" value="圈子信息记录" style="edgeLabel;html=1;align=center;verticalAlign=middle;resizable=0;points=[];" parent="1" vertex="1" connectable="0">
          <mxGeometry x="690" y="180" as="geometry" />
        </mxCell>
      </root>
    </mxGraphModel>
  </diagram>
</mxfile>
